<?xml version="1.0" standalone="no"?><!DOCTYPE svg PUBLIC "-//W3C//DTD SVG 1.1//EN" "http://www.w3.org/Graphics/SVG/1.1/DTD/svg11.dtd"><svg t="1542883786227" class="icon" style="" viewBox="0 0 1024 1024" version="1.1" xmlns="http://www.w3.org/2000/svg" p-id="1233" xmlns:xlink="http://www.w3.org/1999/xlink" width="200" height="200"><defs><style type="text/css"></style></defs><path d="M322.7 891.6h-0.2c-1 0-3.6 0-7.2-0.1-9.4-0.1-27-0.3-43.7-0.6-42.6-0.8-46-1.7-49.4-2.6l-1.4-0.4c-28.3-7.9-52-26.2-66.8-51.7-20-34.4-19.1-76.5 2.6-112.8l0.3-0.4c75.4-120.2 96.3-241.3 101.7-287.7 0.8-7.1 1.1-14.5 1.5-22.2v-0.2c3.1-75.7 40.1-145.8 101.3-192.2 32.5-24.7 69-41 108.5-48.5 39.4-7.5 79.9-5.8 120.3 5 15.4 4.1 30.5 9.7 44.8 16.8 11.5 5.7 16.3 19.6 10.6 31.2-5.7 11.5-19.6 16.3-31.2 10.6-11.6-5.7-23.8-10.3-36.2-13.6-67.7-18-134.7-5.4-188.8 35.6-50.2 38.1-80.4 95.3-83 157.1v0.2c-0.3 8.3-0.7 16.9-1.7 25.8-5.8 49.6-28.1 178.7-108.4 306.8-12.7 21.4-13.6 45.8-2.2 65.2 8.7 14.9 22.5 25.6 39 30.3 2.4 0.2 10.8 0.8 39.3 1.3 16.5 0.3 34 0.5 43.3 0.6 3.5 0 6.1 0.1 7.3 0.1l449.7-1.2c24.6-0.2 46.6-12.9 57.4-33.2 11.4-22.2 10.2-46.1-3.2-67.5-62.4-94.6-94.6-200.6-95.6-315.1v-0.2c0.1-35.3-8.4-70.3-24.6-101.4-5.9-11.4-1.5-25.5 9.9-31.4 11.4-5.9 25.5-1.5 31.4 9.9 19.6 37.6 29.9 80.1 29.8 122.9 0.9 105.4 30.6 202.9 88 289.9l0.2 0.4c22.4 35.4 24.4 77 5.3 114l-0.1 0.2c-18.8 35.5-56.4 57.8-98.3 58.1h-0.1l-450.1 1zM232.5 843z" fill="#777777" p-id="1234"></path><path d="M519.9 208.7c-41.8 0-75.9-33.8-75.9-75.2s34-75.2 75.9-75.2 75.9 33.8 75.9 75.2-34.1 75.2-75.9 75.2z m0-104c-16.2 0-29.3 12.9-29.3 28.7s13.2 28.7 29.3 28.7c16.2 0 29.3-12.9 29.3-28.7s-13.1-28.7-29.3-28.7zM519.9 965.8c-36.3 0-70.6-4.2-96.8-11.8-14.1-4.1-25.6-9.1-34.1-15-16.6-11.4-20.1-24.6-20.1-33.6s3.5-22.2 20.1-33.6c8.5-5.8 19.9-10.9 34.1-15 26.2-7.6 60.6-11.8 96.8-11.8s70.6 4.2 96.8 11.8c14.1 4.1 25.6 9.1 34.1 15 16.6 11.4 20.1 24.6 20.1 33.6s-3.5 22.2-20.1 33.6c-8.5 5.8-19.9 10.9-34.1 15-26.2 7.6-60.5 11.8-96.8 11.8z m-95.2-60.4c5.1 2.1 12.1 4.4 21.6 6.5 20.7 4.7 46.9 7.3 73.6 7.3 26.8 0 52.9-2.6 73.6-7.3 9.4-2.2 16.5-4.5 21.6-6.5-5.1-2.1-12.1-4.4-21.6-6.5-20.7-4.7-46.9-7.3-73.6-7.3-26.8 0-52.9 2.6-73.6 7.3-9.5 2.2-16.5 4.5-21.6 6.5z" fill="#777777" p-id="1235"></path><path d="M637.1 576.2c0 64.3-23.3 116.4-116.4 116.4s-116.4-52.1-116.4-116.4 52.1-209.5 116.4-209.5 116.4 145.2 116.4 209.5z" fill="#ABCFFF" p-id="1236"></path></svg>