<?xml version="1.0" standalone="no"?><!DOCTYPE svg PUBLIC "-//W3C//DTD SVG 1.1//EN" "http://www.w3.org/Graphics/SVG/1.1/DTD/svg11.dtd"><svg t="1543213935346" class="icon" style="" viewBox="0 0 1024 1024" version="1.1" xmlns="http://www.w3.org/2000/svg" p-id="1178" xmlns:xlink="http://www.w3.org/1999/xlink" width="32" height="32"><defs><style type="text/css"></style></defs><path d="M657.3 397.7c-10.5-7.4-25-4.8-32.4 5.7L512 564.6 399.1 403.4c-7.4-10.5-21.9-13.1-32.4-5.7-10.5 7.4-13.1 21.9-5.7 32.4l131.9 188.4c0.4 0.6 1.1 0.8 1.6 1.4 1.3 1.5 2.4 3.2 4.1 4.4 0.6 0.4 1.3 0.6 2 1s1.3 0.7 2 1c3 1.3 6.1 2.2 9.3 2.2 3.2 0 6.3-0.9 9.3-2.2 0.7-0.3 1.4-0.6 2-1 0.6-0.4 1.4-0.5 2-1 1.7-1.2 2.9-2.8 4.2-4.4 0.5-0.5 1.1-0.8 1.6-1.4l132-188.4c7.4-10.5 4.8-25-5.7-32.4z" fill="#777777" p-id="1179"></path></svg>