<?xml version="1.0" standalone="no"?><!DOCTYPE svg PUBLIC "-//W3C//DTD SVG 1.1//EN" "http://www.w3.org/Graphics/SVG/1.1/DTD/svg11.dtd"><svg t="1542968760230" class="icon" style="" viewBox="0 0 1024 1024" version="1.1" xmlns="http://www.w3.org/2000/svg" p-id="1178" xmlns:xlink="http://www.w3.org/1999/xlink" width="200" height="200"><defs><style type="text/css"></style></defs><path d="M854.4 819.5L615.6 580.6c-9.1-9.1-23.8-9.1-32.9 0-41.3 41.3-96.2 64-154.5 64-120.5 0-218.5-98-218.5-218.5s98-218.5 218.5-218.5 218.5 98 218.5 218.5c0 22-3.2 43.7-9.6 64.4-3.8 12.3 3.1 25.3 15.4 29.1 12.3 3.8 25.3-3.1 29.1-15.4 7.8-25.2 11.7-51.5 11.7-78.1 0-146.2-118.9-265.1-265.1-265.1S163.1 279.9 163.1 426.1c0 146.2 118.9 265.1 265.1 265.1 63 0 122.5-21.9 170.2-62l223.2 223.2c4.5 4.5 10.5 6.8 16.5 6.8s11.9-2.3 16.5-6.8c8.9-9.1 8.9-23.8-0.2-32.9z" fill="#777777" p-id="1179"></path><path d="M481.6 251.7c-4 9.5 0.4 20.4 9.9 24.4s18.8 9.1 27.5 14.9c3.2 2.2 6.8 3.2 10.4 3.2 6 0 11.9-2.9 15.5-8.2 5.8-8.5 3.5-20.1-5-25.8-10.7-7.2-22.1-13.4-33.8-18.3-9.5-4.2-20.5 0.3-24.5 9.8zM232.2 385.8c-2 10.1 4.4 19.9 14.5 22 1.2 0.2 2.5 0.4 3.8 0.4 8.7 0 16.4-6.1 18.2-14.9 15.4-75.3 82.5-129.9 159.4-129.9 10.3 0 18.6-8.3 18.6-18.6s-8.3-18.6-18.6-18.6c-94.5-0.1-176.9 67.1-195.9 159.6z" fill="#777777" p-id="1180"></path></svg>