<svg
 xmlns="http://www.w3.org/2000/svg"
 xmlns:xlink="http://www.w3.org/1999/xlink"
 width="28px" height="28px">
<path fill-rule="evenodd"  fill="rgb(255, 255, 255)"
 d="M23.899,23.900 C21.255,26.544 17.740,28.000 14.000,28.000 C10.260,28.000 6.745,26.544 4.101,23.900 C1.456,21.255 0.000,17.740 0.000,14.000 C0.000,10.260 1.456,6.745 4.101,4.101 C6.745,1.456 10.260,0.000 14.000,0.000 C17.740,0.000 21.255,1.456 23.899,4.101 C26.544,6.745 28.000,10.261 28.000,14.000 C28.000,17.740 26.544,21.255 23.899,23.900 ZM14.000,1.285 C6.989,1.285 1.284,6.989 1.284,14.000 C1.284,21.011 6.989,26.716 14.000,26.716 C21.011,26.716 26.716,21.011 26.716,14.000 C26.716,6.989 21.011,1.285 14.000,1.285 ZM20.871,21.861 C20.516,21.861 20.229,21.573 20.229,21.218 C20.229,17.760 17.415,14.945 13.956,14.945 C10.497,14.945 7.683,17.760 7.683,21.219 C7.683,21.573 7.395,21.861 7.040,21.861 C6.686,21.861 6.398,21.573 6.398,21.219 C6.398,17.887 8.564,15.053 11.562,14.050 C9.836,13.173 8.650,11.382 8.650,9.317 C8.650,6.392 11.030,4.012 13.956,4.012 C16.881,4.012 19.261,6.392 19.261,9.317 C19.261,11.382 18.075,13.173 16.349,14.050 L16.349,14.050 C19.347,15.053 21.513,17.887 21.513,21.219 C21.513,21.573 21.226,21.861 20.871,21.861 ZM17.976,9.317 C17.976,7.100 16.173,5.297 13.956,5.297 C11.739,5.297 9.935,7.100 9.935,9.317 C9.935,11.534 11.739,13.338 13.956,13.338 C16.173,13.338 17.976,11.534 17.976,9.317 Z"/>
</svg>
