<?xml version="1.0" standalone="no"?><!DOCTYPE svg PUBLIC "-//W3C//DTD SVG 1.1//EN" "http://www.w3.org/Graphics/SVG/1.1/DTD/svg11.dtd"><svg t="1543375545373" class="icon" style="" viewBox="0 0 1024 1024" version="1.1" xmlns="http://www.w3.org/2000/svg" p-id="1273" xmlns:xlink="http://www.w3.org/1999/xlink" width="32" height="32"><defs><style type="text/css"></style></defs><path d="M397.7 366.69999999c-7.4 10.5-4.8 25 5.7 32.40000001L564.6 512 403.4 624.9c-10.5 7.4-13.1 21.9-5.7 32.40000001 7.4 10.5 21.9 13.1 32.4 5.69999999l188.40000001-131.9c0.6-0.4 0.8-1.09999999 1.39999999-1.6 1.5-1.3 3.19999999-2.4 4.4-4.1 0.4-0.6 0.59999999-1.3 1-2s0.7-1.3 1-2c1.3-3 2.19999999-6.1 2.2-9.3 0-3.2-0.9-6.3-2.2-9.3-0.3-0.7-0.6-1.39999999-1-2-0.4-0.6-0.5-1.39999999-1-2-1.2-1.7-2.8-2.9-4.4-4.2-0.5-0.5-0.8-1.09999999-1.4-1.6l-188.4-132c-10.5-7.4-25-4.8-32.4 5.69999999z" fill="#777777" p-id="1274"></path></svg>