<svg
 xmlns="http://www.w3.org/2000/svg"
 xmlns:xlink="http://www.w3.org/1999/xlink"
 width="221px" height="23px">
<path fill-rule="evenodd"  fill="rgb(143, 143, 143)"
 d="M1.000,10.000 L32.000,10.000 C32.552,10.000 33.000,10.447 33.000,11.000 C33.000,11.552 32.552,12.000 32.000,12.000 L1.000,12.000 C0.448,12.000 -0.000,11.552 -0.000,11.000 C-0.000,10.447 0.448,10.000 1.000,10.000 Z"/>
<path fill-rule="evenodd"  fill="rgb(143, 143, 143)"
 d="M42.000,9.000 C43.105,9.000 44.000,9.895 44.000,11.000 C44.000,12.104 43.105,13.000 42.000,13.000 C40.895,13.000 40.000,12.104 40.000,11.000 C40.000,9.895 40.895,9.000 42.000,9.000 Z"/>
<path fill-rule="evenodd"  fill="rgb(143, 143, 143)"
 d="M189.000,10.000 L220.000,10.000 C220.552,10.000 221.000,10.447 221.000,11.000 C221.000,11.552 220.552,12.000 220.000,12.000 L189.000,12.000 C188.448,12.000 188.000,11.552 188.000,11.000 C188.000,10.447 188.448,10.000 189.000,10.000 Z"/>
<path fill-rule="evenodd"  fill="rgb(143, 143, 143)"
 d="M179.000,9.000 C180.105,9.000 181.000,9.895 181.000,11.000 C181.000,12.104 180.105,13.000 179.000,13.000 C177.895,13.000 177.000,12.104 177.000,11.000 C177.000,9.895 177.895,9.000 179.000,9.000 Z"/>
<text font-family="Microsoft YaHei" fill="rgb(51, 51, 51)" font-size="24px" x="54px" y="20px">&#28909;&#38376;&#35780;&#35770;</text>
</svg>
