<svg
 xmlns="http://www.w3.org/2000/svg"
 xmlns:xlink="http://www.w3.org/1999/xlink"
 width="23px" height="23px">
<path fill-rule="evenodd"  fill="rgb(51, 115, 174)"
 d="M19.539,8.078 L6.717,20.952 L2.048,16.284 L14.919,3.464 L19.539,8.078 L19.539,8.078 ZM22.563,2.901 C22.871,3.209 23.015,3.584 23.001,4.031 C22.986,4.478 22.803,4.867 22.462,5.209 L20.154,7.516 L15.486,2.848 L17.794,0.541 C18.135,0.199 18.529,0.022 18.972,0.003 C19.414,-0.017 19.794,0.132 20.101,0.439 L22.563,2.901 L22.563,2.901 ZM1.639,17.001 L6.000,21.361 L0.000,23.000 L1.639,17.001 L1.639,17.001 Z"/>
</svg>
