<svg
 xmlns="http://www.w3.org/2000/svg"
 xmlns:xlink="http://www.w3.org/1999/xlink"
 width="26px" height="26px">
<path fill-rule="evenodd"  fill="rgb(103, 148, 183)"
 d="M25.085,14.506 C25.452,14.298 25.993,13.270 25.993,12.361 C25.956,10.860 24.505,9.748 22.312,9.748 L16.500,9.748 C17.495,7.039 17.307,3.387 16.059,1.436 C15.308,0.263 14.405,-0.000 13.779,-0.000 C11.669,-0.000 11.600,2.032 11.600,2.723 C11.600,5.036 11.266,6.089 10.850,7.061 C10.520,7.690 8.501,9.759 6.438,9.759 L2.573,9.759 C1.080,9.759 -0.002,11.009 0.000,12.787 L1.003,23.366 C1.124,24.996 1.924,25.984 3.530,25.984 C3.530,25.984 4.329,25.990 4.928,25.990 C5.233,25.990 5.519,25.987 5.688,25.984 C6.183,25.967 6.590,25.650 6.951,25.384 C7.206,25.196 7.409,25.033 7.592,25.033 C7.674,25.033 8.143,25.302 8.718,25.546 C9.305,25.794 10.235,26.000 11.125,26.000 L19.210,26.000 C21.921,26.000 23.222,24.984 23.222,23.291 C23.222,22.791 23.107,22.494 22.829,22.106 C23.917,21.845 24.882,21.161 24.882,19.982 C24.882,19.544 24.676,18.840 24.394,18.653 C24.926,18.517 26.001,17.569 26.000,16.492 L26.000,16.492 M4.648,24.917 C4.164,24.933 3.427,24.917 3.415,24.917 C2.792,24.917 2.239,24.330 2.099,23.541 L1.096,12.543 C1.096,11.720 1.758,10.818 2.642,10.818 L2.642,10.824 L5.439,10.835 C5.503,10.835 5.568,10.827 5.632,10.825 L5.632,24.279 C5.456,24.401 5.292,24.520 5.175,24.606 C5.014,24.725 5.745,24.907 5.648,24.917 L5.648,24.917 L5.648,24.917 L4.648,24.917 Z"/>
</svg>
