<svg
 xmlns="http://www.w3.org/2000/svg"
 xmlns:xlink="http://www.w3.org/1999/xlink"
 width="26px" height="26px">
<path fill-rule="evenodd"  fill="rgb(0, 93, 123)"
 d="M26.000,16.492 C26.000,15.592 25.690,14.905 25.085,14.507 C25.452,14.298 25.993,13.270 25.993,12.361 C25.956,10.861 24.505,9.749 22.312,9.749 L16.500,9.749 C17.495,7.040 17.307,3.386 16.059,1.436 C15.308,0.264 14.405,0.000 13.779,0.000 C11.669,0.000 11.600,2.032 11.600,2.723 C11.600,5.036 11.266,6.089 10.850,7.061 C10.520,7.690 8.501,9.759 6.438,9.759 L2.573,9.759 C1.080,9.759 -0.002,11.009 0.000,12.787 L1.003,23.367 C1.124,24.997 1.924,25.984 3.530,25.984 C3.530,25.984 4.329,25.990 4.928,25.990 C5.233,25.990 5.519,25.988 5.688,25.984 C6.183,25.968 6.590,25.651 6.951,25.384 C7.206,25.196 7.409,25.033 7.592,25.033 C7.674,25.033 8.143,25.302 8.718,25.547 C9.305,25.794 10.235,26.000 11.125,26.000 L19.210,26.000 C21.921,26.000 23.222,24.984 23.222,23.291 C23.222,22.790 23.107,22.494 22.829,22.106 C23.917,21.846 24.882,21.161 24.882,19.982 C24.882,19.544 24.676,18.840 24.394,18.654 C24.926,18.517 26.001,17.569 26.000,16.492 L26.000,16.492 L26.000,16.492 ZM5.648,24.918 C5.164,24.933 3.427,24.918 3.415,24.918 C2.792,24.918 2.239,24.330 2.099,23.541 L1.096,12.543 C1.096,11.720 1.758,10.819 2.642,10.819 L2.642,10.824 L6.439,10.835 C6.503,10.835 6.568,10.827 6.632,10.825 L6.632,24.279 C6.456,24.402 6.292,24.521 6.175,24.607 C6.014,24.725 5.745,24.906 5.648,24.918 L5.648,24.918 L5.648,24.918 L5.648,24.918 ZM23.376,17.934 C23.374,17.934 23.230,17.934 23.229,17.934 L23.243,18.915 C23.360,18.960 23.795,19.090 23.796,19.943 C23.796,20.858 22.595,21.225 21.584,21.225 L21.586,21.225 L21.569,22.160 C21.981,22.252 22.129,22.612 22.128,23.187 C22.128,24.193 21.311,24.918 19.188,24.918 L10.815,24.918 C10.414,24.918 9.601,24.684 9.132,24.458 C8.690,24.244 7.981,23.844 7.737,23.712 L7.737,10.647 C9.842,10.064 11.580,8.248 12.019,7.409 C12.496,6.300 12.735,5.141 12.735,2.597 C12.735,1.334 13.198,1.164 13.693,1.164 C14.130,1.164 14.824,1.646 15.175,2.195 C16.215,3.818 16.457,7.313 15.165,9.931 L14.942,10.837 L22.363,10.836 C23.626,10.904 24.896,11.422 24.896,12.353 L24.887,12.645 C24.891,12.657 24.856,13.452 24.433,13.803 C24.078,14.099 23.790,14.108 23.790,14.108 L23.782,15.074 C23.782,15.074 24.210,15.132 24.434,15.286 C24.770,15.516 24.923,15.954 24.905,16.431 C24.883,17.036 23.949,17.934 23.376,17.934 L23.376,17.934 L23.376,17.934 Z"/>
</svg>
